<svg xmlns="http://www.w3.org/2000/svg" xmlns:xlink="http://www.w3.org/1999/xlink" width="1024" zoomAndPan="magnify" viewBox="0 0 768 767.999994" height="1024" preserveAspectRatio="xMidYMid meet" version="1.0"><defs><clipPath id="aee4d14197"><path d="M 384 0 C 171.921875 0 0 171.921875 0 384 C 0 596.078125 171.921875 768 384 768 C 596.078125 768 768 596.078125 768 384 C 768 171.921875 596.078125 0 384 0 Z M 384 0 " clip-rule="nonzero"/></clipPath></defs><g clip-path="url(#aee4d14197)"><rect x="-76.8" width="921.6" fill="#222222" y="-76.799999" height="921.599993" fill-opacity="1"/></g><path fill="#ffffff" d="M 491.664062 582.234375 L 398.515625 675.460938 C 394.238281 679.8125 390.046875 684.832031 385.015625 688.308594 L 384.503906 688.160156 C 380.703125 686.640625 376.804688 681.691406 373.898438 678.761719 L 172.246094 477.457031 C 170.785156 475.867188 169.636719 474.242188 168.613281 472.34375 C 173.414062 471.601562 178.835938 472.066406 183.703125 472.070312 L 315.179688 472.019531 L 315.4375 572.402344 L 348.886719 572.519531 C 349.65625 567.949219 349.128906 562.496094 349.136719 557.8125 L 349.210938 475.800781 C 349.214844 467.214844 349.738281 458.234375 349.066406 449.6875 C 347.804688 433.695312 333.308594 434.136719 321.941406 434.132812 L 156.835938 434.140625 C 150.265625 434.136719 143.1875 434.652344 136.730469 433.375 C 111.496094 408.160156 91.550781 369.355469 85.382812 334.636719 C 68.214844 237.972656 141.210938 143.355469 241.167969 141.21875 C 284.925781 141.105469 323.578125 155.726562 357.039062 184.503906 L 383.851562 209.617188 L 410.582031 184.597656 C 474.570312 128.238281 568.730469 125.742188 631.394531 183.835938 C 637.921875 189.890625 643.6875 196.542969 649.296875 203.4375 C 703.960938 270.660156 693.105469 362.894531 637.996094 426.003906 C 629.289062 435.976562 631.410156 434.058594 617.78125 434.085938 L 439.246094 434.152344 C 430.742188 434.183594 422.578125 435.78125 418.980469 444.695312 L 418.777344 445.210938 C 417.957031 447.246094 418.132812 449.527344 418.132812 451.691406 L 418.246094 572.332031 L 452.09375 572.308594 L 452.253906 471.992188 L 600.515625 472.316406 C 599.015625 475.503906 596.378906 477.992188 593.917969 480.453125 Z M 384.003906 245.703125 L 244.589844 384.820312 L 270.449219 411.152344 L 369.332031 311.574219 C 374.167969 306.769531 378.535156 301.335938 384.019531 297.253906 L 496.1875 410.777344 L 523.007812 384.953125 Z M 384.003906 245.703125 " fill-opacity="1" fill-rule="nonzero"/></svg>